<svg width="140" height="140" viewBox="0 0 140 140" fill="none" xmlns="http://www.w3.org/2000/svg">
<path d="M68.9228 7.63892C34.4817 8.23384 7.044 36.6361 7.63892 71.0772C8.23384 105.518 36.6361 132.956 71.0772 132.361C105.518 131.766 132.956 103.364 132.361 68.9228C132.265 63.3877 131.453 58.039 130.015 52.9613C129.441 50.9342 130.619 48.8256 132.646 48.2516C134.673 47.6776 136.782 48.8555 137.356 50.8826C138.971 56.5887 139.882 62.5915 139.989 68.791C140.657 107.445 109.863 139.322 71.209 139.989C32.5549 140.657 0.678352 109.863 0.010656 71.209C-0.65704 32.5549 30.137 0.678346 68.791 0.01065C86.6669 -0.298131 103.097 6.12555 115.655 16.9371C116.42 16.7138 117.228 16.5941 118.065 16.5941C122.805 16.5941 126.648 20.4369 126.648 25.1772C126.648 29.9175 122.805 33.7603 118.065 33.7603C113.325 33.7603 109.482 29.9175 109.482 25.1772C109.482 24.1173 109.674 23.1024 110.025 22.1652C98.9178 12.8619 84.5432 7.36909 68.9228 7.63892Z" fill="#4B8DDA"/>
<path d="M57.6824 88.3247L53.463 99.3319H37.8695L62.4522 35.1233H80.0637L104.646 99.3319H88.8695L71.258 49.0657L61.3515 76.2168H76.7616L80.7975 88.3247H57.6824Z" fill="#4B8DDA"/>
</svg>
