<svg width="145" height="129" viewBox="0 0 145 129" fill="none" xmlns="http://www.w3.org/2000/svg">
<path d="M72.6218 77.5447C79.8897 77.5447 85.7815 71.664 85.7815 64.4098C85.7815 57.1555 79.8897 51.2748 72.6218 51.2748C65.354 51.2748 59.4622 57.1555 59.4622 64.4098C59.4622 71.664 65.354 77.5447 72.6218 77.5447Z" fill="#4B8DDA"/>
<path fill-rule="evenodd" clip-rule="evenodd" d="M36.4379 127.114C45.1103 132.111 58.728 126.27 72.5661 113.213C86.4042 126.27 100.022 132.111 108.694 127.114C117.395 122.1 119.118 107.329 114.654 88.7541C133.027 83.3266 145 74.4452 145 64.4098C145 54.4187 133.132 45.5714 114.897 40.1376C119.362 21.5616 117.639 6.78941 108.938 1.77538C100.215 -3.25155 86.4879 2.68818 72.5661 15.9067C58.6443 2.68818 44.9175 -3.25155 36.1942 1.77538C27.4991 6.78611 25.7723 21.5422 30.2261 40.1009C11.921 45.5315 0 54.3962 0 64.4098C0 74.4676 12.0266 83.3663 30.4692 88.7905C26.0161 107.348 27.7432 122.103 36.4379 127.114ZM79.9361 94.1729C77.5001 97.2921 75.0321 100.189 72.5661 102.841C70.1015 100.19 67.6351 97.2956 65.2005 94.1786C67.6011 94.2776 70.0362 94.3283 72.5 94.3283C75.0105 94.3283 77.4913 94.2757 79.9361 94.1729ZM60.9566 113.55C63.0738 111.926 65.2352 110.081 67.4169 108.029C63.4005 103.731 59.415 98.8612 55.5764 93.5088C49.1973 92.8793 43.1457 91.9019 37.546 90.6279C36.8375 93.5991 36.3042 96.4456 35.9473 99.1376C35.0907 105.599 35.3012 110.796 36.2651 114.558C37.2208 118.287 38.7328 120.01 40.0934 120.794C41.4539 121.578 43.7052 122.023 47.4186 120.985C51.1643 119.937 55.7784 117.521 60.9566 113.55ZM72.5 87.0311C68.0784 87.0311 63.7707 86.861 59.6119 86.539C57.2797 83.1376 55.0038 79.5361 52.8167 75.7551C50.6706 72.0449 48.7173 68.3473 46.9582 64.6984C48.78 60.8849 50.8147 57.0162 53.0604 53.1338C55.2674 49.3183 57.5648 45.6857 59.9194 42.2571C63.9828 41.9503 68.1873 41.7884 72.5 41.7884C76.8621 41.7884 81.1134 41.954 85.2201 42.2676C87.5721 45.6932 89.867 49.3222 92.0717 53.1338C94.3174 57.0162 96.3522 60.8849 98.1739 64.6984C96.4149 68.3473 94.4615 72.0449 92.3154 75.7551C90.1307 79.5321 87.8573 83.13 85.5277 86.5281C81.3258 86.8572 76.9711 87.0311 72.5 87.0311ZM46.4853 79.4037C45.3186 77.3868 44.2043 75.3694 43.143 73.3567C41.732 76.8551 40.5121 80.2758 39.485 83.5841C42.8708 84.3449 46.4493 84.9955 50.1896 85.5197C48.9295 83.5317 47.6931 81.4918 46.4853 79.4037ZM46.729 49.4852C45.4611 51.6771 44.2551 53.8695 43.1117 56.0558C41.6085 52.3704 40.3163 48.7687 39.2371 45.2914C42.7908 44.4849 46.5588 43.8002 50.5051 43.2559C49.2201 45.2797 47.9598 47.3574 46.729 49.4852ZM38.8926 64.7128C36.1457 58.6932 33.8943 52.787 32.1578 47.1406C29.2456 48.0096 26.527 48.9665 24.0281 49.9977C17.9933 52.4881 13.5896 55.2683 10.8078 57.9824C8.05014 60.673 7.31092 62.8417 7.31092 64.4098C7.31092 65.9778 8.05014 68.1465 10.8078 70.8371C13.5896 73.5512 17.9933 76.3314 24.0281 78.8218C26.5963 79.8816 29.3967 80.863 32.4006 81.751C34.0856 76.2717 36.2555 70.5476 38.8926 64.7128ZM55.892 35.2799C49.3029 35.9171 43.0598 36.9253 37.2992 38.2481C36.5923 35.2816 36.06 32.4393 35.7036 29.7513C34.847 23.2896 35.0575 18.093 36.0214 14.3314C36.9771 10.6023 38.4891 8.87898 39.8497 8.09494C41.2102 7.31091 43.4615 6.86554 47.1749 7.90401C50.9206 8.95154 55.5347 11.368 60.7129 15.3393C62.914 17.0273 65.1628 18.9546 67.4325 21.1041C63.5184 25.3154 59.6358 30.0681 55.892 35.2799ZM65.5081 34.6285C67.8417 31.6453 70.2042 28.8665 72.5661 26.3111C74.9294 28.868 77.2934 31.6486 79.6283 34.634C77.2832 34.5395 74.9053 34.4912 72.5 34.4912C70.1414 34.4912 67.809 34.5377 65.5081 34.6285ZM98.4032 49.4852C97.1765 47.3644 95.9204 45.2935 94.6398 43.276C98.5791 43.8234 102.34 44.5107 105.886 45.3194C104.809 48.7881 103.52 52.3803 102.02 56.0558C100.877 53.8695 99.671 51.6771 98.4032 49.4852ZM98.6468 79.4037C99.8135 77.3868 100.928 75.3693 101.989 73.3567C103.396 76.8452 104.613 80.2567 105.639 83.5563C102.26 84.3192 98.6887 84.9722 94.9555 85.4993C96.2112 83.5177 97.4431 81.4847 98.6468 79.4037ZM106.239 64.7127C108.871 70.5349 111.037 76.2467 112.72 81.7151C115.679 80.8366 118.438 79.8674 120.972 78.8218C127.007 76.3314 131.41 73.5512 134.192 70.8371C136.95 68.1465 137.689 65.9778 137.689 64.4098C137.689 62.8417 136.95 60.673 134.192 57.9824C131.41 55.2684 127.007 52.4881 120.972 49.9977C118.508 48.9808 115.83 48.0362 112.963 47.1768C111.228 52.8123 108.981 58.706 106.239 64.7127ZM89.5659 93.4947C95.9403 92.8601 101.986 91.8778 107.579 90.5993C108.291 93.5808 108.827 96.437 109.185 99.1376C110.041 105.599 109.831 110.796 108.867 114.558C107.911 118.287 106.399 120.01 105.039 120.794C103.678 121.578 101.427 122.023 97.7136 120.985C93.9678 119.937 89.3537 117.521 84.1755 113.55C82.0583 111.926 79.8969 110.081 77.7153 108.029C81.7352 103.727 85.7241 98.8527 89.5659 93.4947ZM77.6996 21.1041C81.6171 25.3191 85.5032 30.0765 89.2501 35.2937C95.8347 35.9363 102.072 36.9495 107.826 38.2769C108.536 35.3 109.071 32.448 109.429 29.7513C110.285 23.2896 110.075 18.093 109.111 14.3314C108.155 10.6023 106.643 8.87898 105.282 8.09494C103.922 7.31091 101.671 6.86554 97.9573 7.90401C94.2115 8.95154 89.5974 11.368 84.4192 15.3393C82.2182 17.0273 79.9693 18.9546 77.6996 21.1041Z" fill="#4B8DDA"/>
</svg>
