<svg width="140" height="158" viewBox="0 0 140 158" fill="none" xmlns="http://www.w3.org/2000/svg">
<path fill-rule="evenodd" clip-rule="evenodd" d="M134.662 35.6013L75.3376 1.42701C72.0347 -0.475668 67.9653 -0.475671 64.6624 1.42701L5.33775 35.6013C2.03474 37.504 0 41.0204 0 44.8258V113.174C0 116.98 2.03474 120.496 5.33775 122.399L64.6624 156.573C67.9653 158.476 72.0347 158.476 75.3376 156.573L134.662 122.399C137.965 120.496 140 116.98 140 113.174V44.8258C140 41.0204 137.965 37.504 134.662 35.6013ZM70.1525 33.046C44.7161 33.046 24.0959 53.6203 24.0959 79C24.0959 104.38 44.7161 124.954 70.1525 124.954C87.3256 124.954 102.303 115.576 110.222 101.673L90.0554 90.2602C86.1222 97.1664 78.6826 101.825 70.1525 101.825C57.5185 101.825 47.2767 91.6058 47.2767 79C47.2767 66.3942 57.5185 56.1752 70.1525 56.1752C78.6198 56.1752 86.0126 60.7652 89.968 67.5876L110.109 56.1291C102.161 42.3349 87.2438 33.046 70.1525 33.046ZM111.024 67.7397H115.599V71.3917H121.089V67.7397H125.664V71.3917H129.325V75.9567H125.664V81.739H129.325V86.3039H125.664V89.9559H121.089V86.3039H115.599V89.9559H111.024V86.3039H107.364V81.739H111.024V75.9567H107.364V71.3917H111.024V67.7397ZM115.599 81.739V75.9567H121.089V81.739H115.599Z" fill="#4B8DDA"/>
</svg>
