<svg width="130" height="145" viewBox="0 0 130 145" fill="none" xmlns="http://www.w3.org/2000/svg">
<path fill-rule="evenodd" clip-rule="evenodd" d="M64.5267 9.37734L119.193 40.9387V104.061L64.5267 135.623L9.86078 104.061V40.9387L64.5267 9.37734ZM15.9944 44.4799V90.8453L56.148 21.2973L15.9944 44.4799ZM64.5267 19.0522L18.2394 99.224H110.814L64.5267 19.0522ZM104.68 105.358H24.373L64.5267 128.54L104.68 105.358ZM113.059 90.8453L72.9053 21.2973L113.059 44.4799V90.8453Z" fill="#4B8DDA"/>
<path d="M64.5251 25.8368C71.6598 25.8368 77.4435 20.053 77.4435 12.9184C77.4435 5.78376 71.6598 0 64.5251 0C57.3905 0 51.6068 5.78376 51.6068 12.9184C51.6068 20.053 57.3905 25.8368 64.5251 25.8368Z" fill="#4B8DDA"/>
<path d="M116.126 55.6279C123.261 55.6279 129.045 49.8442 129.045 42.7096C129.045 35.5749 123.261 29.7912 116.126 29.7912C108.992 29.7912 103.208 35.5749 103.208 42.7096C103.208 49.8442 108.992 55.6279 116.126 55.6279Z" fill="#4B8DDA"/>
<path d="M116.126 115.209C123.261 115.209 129.045 109.425 129.045 102.29C129.045 95.1558 123.261 89.3721 116.126 89.3721C108.992 89.3721 103.208 95.1558 103.208 102.29C103.208 109.425 108.992 115.209 116.126 115.209Z" fill="#4B8DDA"/>
<path d="M64.5251 145C71.6598 145 77.4435 139.216 77.4435 132.082C77.4435 124.947 71.6598 119.163 64.5251 119.163C57.3905 119.163 51.6068 124.947 51.6068 132.082C51.6068 139.216 57.3905 145 64.5251 145Z" fill="#4B8DDA"/>
<path d="M12.9184 115.209C20.053 115.209 25.8368 109.425 25.8368 102.29C25.8368 95.1558 20.053 89.3721 12.9184 89.3721C5.78376 89.3721 0 95.1558 0 102.29C0 109.425 5.78376 115.209 12.9184 115.209Z" fill="#4B8DDA"/>
<path d="M12.9184 55.6279C20.053 55.6279 25.8368 49.8442 25.8368 42.7096C25.8368 35.5749 20.053 29.7912 12.9184 29.7912C5.78376 29.7912 0 35.5749 0 42.7096C0 49.8442 5.78376 55.6279 12.9184 55.6279Z" fill="#4B8DDA"/>
</svg>
