<svg width="76" height="157" viewBox="0 0 76 157" fill="none" xmlns="http://www.w3.org/2000/svg">
<path d="M52.1378 17.4987C45.3065 9.68079 39.424 1.74071 38.2223 0.0916165C38.0957 -0.0305388 37.9059 -0.0305388 37.7794 0.0916165C36.5776 1.74071 30.6952 9.68079 23.8638 17.4987C-34.7711 89.6311 33.0988 138.31 33.0988 138.31L33.668 138.677C34.174 146.189 35.4391 157 35.4391 157H37.9692H40.4993C40.4993 157 41.7644 146.25 42.2704 138.677L42.8396 138.249C42.9028 138.31 110.773 89.6311 52.1378 17.4987ZM37.9692 137.211C37.9692 137.211 34.9331 134.707 34.1108 133.424V133.302L37.7794 54.7561C37.7794 54.5117 38.159 54.5117 38.159 54.7561L41.8276 133.302V133.424C41.0053 134.707 37.9692 137.211 37.9692 137.211Z" fill="#4B8DDA"/>
</svg>
